PathFileType  4	(X/Y/Z) C:\Users\antoi\Documents\MyRepositories\mobilecap\ResultsAnalysis
DataRate	CameraRate	NumFrames	NumMarkers	Units	OrigDataRate	OrigDataStartFrame	OrigNumFrames
100.0	100.0	7	51	mm	100.0	484	1288
Frame#	Time	r_knee			r_shank_antsup			r_ankle			r_calc			r_5meta			r_toe			L_knee			L_shank_antsup			L_ankle			L_calc			L_5meta			L_toe			r_sh2			r_sh3			r_sh4			L_sh2			L_sh3			r_thigh1			r_thigh2			r_thigh3			r_thigh4			r_thigh5			L_thigh1			L_thigh2			L_thigh3			L_thigh4			r.ASIS			r.PSIS			L.ASIS			L.PSIS			C7			R_Shoulder			L_Shoulder			R_Sternum			L_Sternum			R_humerus			R_elbow_med			R_elbow_lat			R_forearm			R_wrist_radius			R_wrist_ulna			L_humerus			L_elbow_med			L_elbow_lat			L_forearm			L_wrist_radius			L_wrist_ulna			R_HJC			L_HJC			R_HJC_reg			L_HJC_reg			
		X1	Y1	Z1	X2	Y2	Z2	X3	Y3	Z3	X4	Y4	Z4	X5	Y5	Z5	X6	Y6	Z6	X7	Y7	Z7	X8	Y8	Z8	X9	Y9	Z9	X10	Y10	Z10	X11	Y11	Z11	X12	Y12	Z12	X13	Y13	Z13	X14	Y14	Z14	X15	Y15	Z15	X16	Y16	Z16	X17	Y17	Z17	X18	Y18	Z18	X19	Y19	Z19	X20	Y20	Z20	X21	Y21	Z21	X22	Y22	Z22	X23	Y23	Z23	X24	Y24	Z24	X25	Y25	Z25	X26	Y26	Z26	X27	Y27	Z27	X28	Y28	Z28	X29	Y29	Z29	X30	Y30	Z30	X31	Y31	Z31	X32	Y32	Z32	X33	Y33	Z33	X34	Y34	Z34	X35	Y35	Z35	X36	Y36	Z36	X37	Y37	Z37	X38	Y38	Z38	X39	Y39	Z39	X40	Y40	Z40	X41	Y41	Z41	X42	Y42	Z42	X43	Y43	Z43	X44	Y44	Z44	X45	Y45	Z45	X46	Y46	Z46	X47	Y47	Z47	X48	Y48	Z48	X49	Y49	Z49	X50	Y50	Z50	X51	Y51	Z51	

484	4.83000000	-249.03485	471.02367	-416.69564	-244.69656	401.15098	-387.16155	-273.58602	94.37665	-395.93412	-338.41453	56.14259	-434.77450	-172.82478	45.83764	-356.52024	-126.60170	66.35419	-408.50193	-249.91579	465.79670	-760.49102	-226.44404	403.83588	-775.33351	-270.81107	95.04832	-788.53060	-338.98933	57.59124	-742.98012	-178.66261	42.80291	-821.88872	-128.01386	66.39650	-768.44284	-251.42936	288.78793	-371.77043	-316.03328	401.46564	-407.05883	-329.18740	286.05968	-397.41316	-315.24050	415.78388	-781.67507	-316.90699	294.70726	-798.72197	-179.39031	773.71496	-440.76120	-176.10422	664.19608	-420.79050	-228.34860	642.86553	-384.24651	-282.61438	777.87680	-391.78045	-282.79085	660.54742	-392.19143	-183.39680	746.41305	-769.67256	-182.59721	608.51582	-771.47695	-300.27398	747.25275	-778.82047	-290.77869	606.58941	-777.06760	-187.56082	923.17806	-462.37395	-363.44417	941.45999	-548.86188	-168.88880	911.75477	-720.38160	-360.85011	933.31249	-656.31412	-332.81089	1396.50693	-591.21858	-260.38805	1358.95152	-437.52144	-258.62946	1363.75986	-758.60369	-199.10718	1339.56546	-573.84600	-199.33407	1339.31837	-618.93706	-284.91941	1130.90494	-346.68390	-323.67393	1023.36158	-400.18448	-310.21001	1051.68171	-325.31718	-193.12344	1030.01935	-338.94926	-86.88255	1008.34681	-368.14112	-92.78246	964.99974	-359.83635	-233.76299	1237.23863	-817.04854	-302.21453	1023.40832	-780.81826	-300.82998	1036.67134	-851.27325	-184.82052	1024.58563	-850.35225	-71.39590	1003.31112	-818.38020	-73.59414	966.09040	-823.83233	-252.14794	847.92540	-492.19612	-235.94775	841.64391	-691.73389	-246.51672	844.35336	-494.44121	-242.40337	831.43534	-664.79866	
485	4.84000000	-250.28583	471.15779	-416.68798	-245.99937	401.49045	-387.12994	-273.69769	94.45202	-395.85039	-338.43179	56.10400	-434.77899	-172.81423	45.96603	-356.51993	-126.63160	66.45695	-408.49662	-251.46996	466.08074	-759.96023	-228.17652	404.32678	-774.72210	-270.88439	95.07185	-788.32446	-339.01163	57.58352	-742.95750	-178.68086	42.83648	-821.84953	-128.02080	66.44740	-768.40621	-252.27027	289.17961	-371.71763	-317.35256	401.37469	-407.37563	-330.12338	285.96156	-397.60460	-317.05081	415.68867	-781.28263	-317.94764	294.91152	-798.24752	-177.97091	773.86534	-440.87213	-175.75452	664.19813	-420.80645	-228.12124	643.09371	-384.57765	-281.64626	778.48567	-392.08912	-282.61403	661.03073	-392.66102	-182.48646	745.96374	-769.58188	-182.88747	608.08005	-770.89547	-299.41747	747.71154	-779.04943	-290.99092	606.82300	-776.49649	-186.13140	923.06035	-462.37600	-362.04854	940.92108	-549.50479	-167.31531	912.09878	-720.63243	-359.37057	932.70840	-656.67103	-334.16944	1395.80926	-591.33670	-261.91012	1358.69402	-437.57768	-260.03968	1363.28634	-758.75589	-200.37572	1339.53113	-573.97561	-200.53414	1339.24802	-619.12483	-285.23037	1130.25944	-346.96021	-323.12515	1022.89145	-400.57859	-310.15338	1050.93387	-325.56983	-193.02135	1029.24186	-338.75704	-86.63869	1007.61332	-367.49544	-92.58492	964.08692	-359.42987	-234.63052	1236.71700	-816.94038	-302.14772	1022.64448	-780.20711	-301.08800	1035.78335	-850.53443	-185.01652	1023.28048	-849.97185	-71.58086	1001.35362	-818.21059	-74.02519	964.13368	-823.65290	-250.50430	847.64809	-492.57597	-234.04253	841.64900	-692.10075	-244.96463	844.35936	-494.47073	-240.70446	831.29349	-664.97191	
486	4.85000000	-251.57120	471.25105	-416.87759	-247.32113	401.77182	-386.96692	-273.85561	94.44820	-395.86290	-338.46200	56.06740	-434.77403	-172.86175	45.97762	-356.51199	-126.65768	66.51625	-408.51450	-253.06502	466.24251	-759.38675	-229.84270	404.77197	-774.03799	-270.96211	95.10334	-788.14859	-339.01569	57.60743	-742.94757	-178.71444	42.87986	-821.83684	-128.02752	66.49764	-768.35848	-253.15385	289.43916	-371.77901	-318.76280	401.28021	-407.61264	-331.00680	285.75538	-397.90863	-318.80439	415.54569	-780.87302	-318.79713	295.03016	-798.12696	-176.74773	773.94711	-440.88597	-175.17452	663.90218	-421.17564	-227.85003	643.34584	-384.83722	-280.62480	778.91910	-392.50756	-282.25264	661.45923	-393.01146	-181.63502	745.51637	-769.53950	-183.15797	607.60585	-770.32344	-298.61168	748.19774	-779.69950	-291.19119	606.97559	-775.79972	-184.72274	922.93414	-462.38921	-360.64739	940.39233	-549.97686	-165.79425	912.41488	-721.09888	-357.92767	932.12678	-657.24096	-335.58040	1395.09449	-591.56474	-263.29901	1358.42077	-437.38768	-261.32673	1362.84390	-759.22429	-201.54723	1339.46240	-574.12383	-201.70560	1339.14358	-619.28706	-285.46986	1129.68282	-347.24051	-322.93761	1022.47355	-400.78913	-310.01326	1050.18344	-325.77001	-192.86261	1028.43144	-338.44850	-86.34741	1006.76304	-366.83462	-92.36219	963.19776	-358.95747	-235.53086	1236.11453	-816.85981	-301.94958	1022.03060	-779.27565	-301.31984	1034.71478	-849.54479	-185.21058	1021.85015	-849.58326	-71.71530	999.26495	-817.98694	-74.38455	962.04263	-823.46405	-248.86526	847.36324	-493.03235	-232.21352	841.65292	-692.54947	-243.40320	844.25154	-494.53621	-239.07327	831.09192	-665.32082	
487	4.86000000	-252.71373	471.59090	-416.99336	-248.63242	401.99114	-386.89327	-274.01426	94.39716	-395.93980	-338.48157	56.05742	-434.78381	-172.90429	45.90440	-356.50459	-126.68654	66.53711	-408.50223	-254.78833	466.23784	-758.65783	-231.55518	405.09646	-773.33546	-271.03928	95.16479	-788.01665	-339.00599	57.62221	-742.93306	-178.72478	42.90601	-821.83918	-128.03728	66.51832	-768.30249	-253.97973	289.62454	-371.72664	-320.24546	401.23623	-407.67405	-331.86750	285.56036	-398.10568	-320.55882	415.43868	-780.45949	-319.79940	294.86418	-797.94291	-175.64414	773.91976	-441.02138	-174.47272	663.51724	-421.77678	-227.56843	643.64449	-385.02607	-279.48816	779.32197	-392.76949	-281.75841	661.86079	-393.26696	-180.80061	745.02505	-769.70225	-183.34946	607.15027	-769.99168	-297.79232	748.49407	-780.04846	-291.40806	607.13258	-775.19785	-183.58483	923.03477	-462.32323	-359.31490	939.97063	-550.41242	-164.29322	912.60835	-721.57931	-356.47089	931.48426	-657.83371	-336.93282	1394.44590	-591.85565	-264.62425	1358.00046	-437.41654	-262.61121	1362.35691	-759.75910	-202.61978	1339.32521	-574.33383	-202.82273	1339.02684	-619.40590	-285.70091	1129.07548	-347.61254	-322.74849	1021.61099	-401.07259	-309.92243	1049.42644	-326.03664	-192.64462	1027.62768	-338.25904	-86.03558	1005.89643	-366.22375	-92.10679	962.40597	-358.34844	-236.40091	1235.39929	-816.75713	-301.64605	1021.16674	-778.34028	-301.47103	1033.59784	-848.61438	-185.37327	1020.23929	-849.01243	-71.81312	997.10503	-817.84728	-74.68578	959.90706	-823.37221	-247.36275	847.25596	-493.35407	-230.42057	841.57135	-692.84758	-242.05014	844.31487	-494.46451	-237.51895	830.79534	-665.59108	
488	4.87000000	-253.68441	471.89165	-417.13117	-249.89068	402.13970	-386.95462	-274.13448	94.41784	-395.95406	-338.48084	56.05807	-434.79955	-172.90558	45.89924	-356.51734	-126.70975	66.56649	-408.46057	-256.59201	466.25127	-757.99519	-233.42221	405.42161	-772.81101	-271.12999	95.24806	-787.89860	-338.99187	57.60636	-742.89858	-178.72433	42.90762	-821.84492	-128.04711	66.51953	-768.29644	-254.75150	289.87300	-371.59532	-321.61753	401.29154	-407.56024	-332.76443	285.49592	-398.02306	-322.44458	415.32229	-780.08113	-321.10302	294.60863	-797.65583	-174.47910	773.82290	-441.47354	-173.82469	663.29919	-422.39682	-227.20656	643.95170	-385.29032	-278.14754	779.81621	-392.77019	-281.16266	662.24370	-393.53757	-179.94367	744.40090	-769.77732	-183.53163	606.62449	-769.74208	-296.88973	748.65057	-779.97151	-291.62662	607.31598	-774.87597	-182.55130	922.94925	-462.38118	-358.07497	939.55749	-550.86362	-162.93114	912.46130	-721.72140	-355.11210	930.86752	-658.08596	-338.11784	1393.79078	-592.07661	-265.90725	1357.47921	-437.75642	-263.85033	1361.76088	-760.09785	-203.60044	1339.12913	-574.63332	-203.85424	1338.84555	-619.56312	-285.88683	1128.42937	-347.88334	-322.30346	1020.30851	-401.60154	-309.90411	1048.56828	-326.55493	-192.42434	1026.87316	-338.30107	-85.72169	1005.10513	-365.59438	-91.82966	961.56078	-357.78151	-237.15913	1234.63227	-816.66047	-301.29270	1019.94020	-777.57765	-301.50760	1032.44199	-847.72314	-185.46399	1018.54891	-848.40275	-71.81910	994.95078	-817.97287	-74.95838	957.71222	-823.22757	-246.07984	847.04483	-493.50661	-228.87935	841.26860	-692.97539	-240.88652	844.31861	-494.44900	-236.15626	830.44583	-665.61573	
489	4.88000000	-254.68765	471.88775	-417.43975	-251.08656	402.27848	-387.00760	-274.21640	94.50512	-395.90806	-338.47494	56.05076	-434.79422	-172.89795	45.96030	-356.54437	-126.71709	66.60789	-408.45098	-258.37756	466.35018	-757.62019	-235.44027	405.82850	-772.45754	-271.23614	95.30680	-787.81289	-338.99493	57.57022	-742.88663	-178.75186	42.90916	-821.87367	-128.07136	66.53468	-768.38370	-255.59895	290.10910	-371.65625	-322.74972	401.34456	-407.33159	-333.62152	285.54037	-397.82449	-324.49589	415.16071	-779.74023	-322.41098	294.53611	-797.55812	-173.28939	773.69322	-442.01107	-173.17316	663.13055	-423.08881	-226.68948	644.20340	-385.72281	-276.69219	780.23434	-392.87998	-280.47106	662.66837	-393.81339	-179.15901	743.71825	-769.65925	-183.80819	605.94389	-769.32418	-296.05112	749.08307	-780.49496	-291.86082	607.53298	-774.78464	-181.34282	922.52560	-462.65583	-356.87542	939.03014	-551.17630	-161.71232	912.07956	-721.80433	-353.93367	930.36215	-658.13701	-339.15916	1393.08742	-592.21787	-267.11904	1356.93887	-438.11267	-264.97266	1361.04386	-760.23870	-204.52436	1338.88981	-574.90139	-204.80851	1338.56611	-619.79567	-286.03388	1127.71378	-348.13917	-321.83683	1019.15454	-402.12745	-309.86370	1047.63033	-327.19561	-192.22709	1026.14453	-338.33532	-85.39475	1004.33728	-364.88194	-91.56491	960.66025	-357.27784	-237.75846	1233.86970	-816.64086	-301.11822	1018.71001	-776.66399	-301.49209	1031.18275	-846.61816	-185.48973	1016.86240	-847.91849	-71.73602	992.85492	-818.24044	-75.21319	955.48310	-822.89985	-244.83205	846.58957	-493.69246	-227.62184	840.83863	-693.16052	-239.60921	843.93114	-494.68309	-234.90558	830.07081	-665.72460	
490	4.89000000	-255.77501	471.89548	-417.59762	-252.26490	402.47288	-387.02510	-274.29210	94.54318	-395.89851	-338.49163	56.01324	-434.76590	-172.91405	45.99764	-356.56210	-126.73244	66.64161	-408.49870	-260.17935	466.33990	-757.28960	-237.55466	406.18033	-772.08360	-271.35880	95.31226	-787.78595	-339.03190	57.50919	-742.91829	-178.80310	42.91867	-821.92515	-128.12340	66.58191	-768.50176	-256.38014	290.22361	-371.84361	-323.84765	401.20799	-407.16317	-334.40574	285.57315	-397.67900	-326.63844	414.99130	-779.49788	-323.62184	294.54049	-797.55800	-172.14502	773.52634	-442.42362	-172.47627	662.80691	-423.90076	-226.07191	644.40280	-386.18011	-275.24825	780.48706	-393.22447	-279.75454	663.11035	-393.94366	-178.49431	743.05835	-769.56899	-184.14898	605.21423	-768.77869	-295.38288	749.69847	-781.67309	-292.15949	607.79096	-774.85119	-179.93065	922.14942	-463.24960	-355.69850	938.39841	-551.43310	-160.52315	911.85012	-722.51485	-352.79444	929.84109	-658.30760	-340.11234	1392.33312	-592.32049	-268.28221	1356.33724	-438.32630	-265.98921	1360.25979	-760.42344	-205.42407	1338.58712	-575.02965	-205.66914	1338.24205	-619.99294	-286.19572	1126.84145	-348.55536	-321.54686	1018.49170	-402.45951	-309.75769	1046.73693	-327.60250	-192.02115	1025.38198	-338.19728	-85.06394	1003.54880	-364.16722	-91.27245	959.86013	-356.71463	-238.25065	1233.03847	-816.63799	-301.06076	1017.81211	-775.42296	-301.48730	1029.87623	-845.40461	-185.51871	1015.16320	-847.46725	-71.60666	990.77655	-818.39857	-75.42812	953.30629	-822.47930	-243.31129	846.11879	-494.20208	-226.40389	840.51323	-693.69990	-238.12869	843.37308	-495.33541	-233.47928	829.67264	-666.45323	
